<?xml version="1.0" encoding="utf-8" ?><svg xmlns="http://www.w3.org/2000/svg" xmlns:xlink="http://www.w3.org/1999/xlink" width="128" height="128" viewBox="0 0 128 128"><path transform="scale(0.25 0.25)" d="M250.788 125.439C217.369 118.749 218.251 71.0895 253.925 66.8446C285.316 62.2601 302.431 114.512 261.281 125.439L261.281 186.846C276.409 188.636 288.636 193.545 300.136 203.741C304.608 200.073 309.428 194.99 313.517 190.885L331.895 172.503C335.719 168.671 339.978 164.184 343.959 160.612C327.215 131.27 355.438 103.123 382.146 115.94C415.893 132.136 395.643 189.677 351.327 167.777C347.946 171.495 344.353 174.798 340.786 178.327L320.061 198.926C316.062 202.907 311.41 207.332 307.681 211.437C317.949 225.029 320.907 233.97 323.082 250.592C329.42 250.833 337.465 250.601 343.893 250.6L385.348 250.592C389.267 229.767 411.957 219.801 430.062 230.121C447.774 240.219 450.036 266.167 433.941 278.861C415.476 293.424 390.717 283.256 385.348 261.033L323.082 261.033C321.834 273.189 319.389 281.297 312.942 291.791C311.046 294.877 308.936 296.863 307.681 300.243C307.723 300.303 307.766 300.363 307.808 300.423L308.027 300.717C309.466 302.68 311.857 304.981 313.63 306.792L323.502 316.735C332.784 326.033 341.756 335.329 351.327 344.342C376.331 326.352 409.589 354.723 395.552 382.224C377.672 417.253 323.823 390.766 343.959 352.397C334.416 340.56 317.499 325.181 306.418 314.479C304.274 312.408 301.935 310.224 300.136 307.855C284.073 315.373 280.156 323.452 257.56 323.295C239.521 323.821 226.223 318.281 212.133 307.855C198.383 320.133 181.299 337.946 168.59 351.47C187.017 385.391 149.756 411.009 124.992 392.664C93.4165 369.208 130.313 321.223 160.872 344.342C174.836 329.607 190.483 314.943 204.867 300.243C193.826 287.448 190.374 277.209 188.437 261.033L127.455 261.033C117.324 307.406 49.3198 281.305 70.751 241.49C84.3316 216.26 122.744 223.059 127.455 250.592L188.437 250.592C188.971 245.227 193.288 218.183 203.074 224.352C207.976 227.442 203.858 232.798 202.304 236.659C178.678 296.178 262.301 343.515 301.559 289.963C333.076 246.972 294.561 185.462 241.972 198.92C237.386 200.094 231.959 203.186 228.518 203.686L228.126 203.741C227.425 203.667 225.672 203.425 225.155 202.94C214.719 193.098 245.201 187.542 250.788 186.846L250.788 125.439ZM255.307 76.9708C244.59 77.3602 236.231 86.3872 236.665 97.1027C237.099 107.818 246.161 116.139 256.875 115.66C267.525 115.184 275.787 106.188 275.355 95.5351C274.924 84.8827 265.961 76.5836 255.307 76.9708ZM367.228 123.375C356.352 124.344 348.337 133.97 349.353 144.841C350.369 155.713 360.029 163.687 370.896 162.624C381.697 161.567 389.612 151.978 388.602 141.173C387.592 130.368 378.038 122.411 367.228 123.375ZM96.0373 236.089C85.1687 236.897 77.0058 246.351 77.7917 257.221C78.5777 268.091 88.0159 276.273 98.8876 275.509C109.79 274.742 118 265.272 117.212 254.371C116.424 243.47 106.937 235.279 96.0373 236.089ZM413.606 236.306C402.879 236.977 394.719 246.203 395.362 256.931C396.006 267.66 405.211 275.844 415.941 275.228C426.71 274.609 434.93 265.364 434.284 254.597C433.638 243.829 424.372 235.633 413.606 236.306ZM139.83 349.274C129.078 351.215 121.942 361.512 123.899 372.261C125.856 383.01 136.164 390.131 146.91 388.158C157.634 386.189 164.737 375.907 162.784 365.181C160.83 354.455 150.559 347.336 139.83 349.274ZM365.63 349.533C355.144 351.36 348.109 361.32 349.893 371.813C351.678 382.306 361.61 389.381 372.11 387.639C382.67 385.887 389.794 375.886 388 365.333C386.205 354.78 376.175 347.696 365.63 349.533Z"/><path transform="scale(0.25 0.25)" d="M160.872 167.777C147.457 172.267 136.162 176.944 123.148 164.903C103.783 146.987 114.474 113.675 141.875 112.758C166.975 110.091 182.41 139.787 167.776 160.612C170.491 163.168 183.41 174.753 182.811 177.574C180.044 190.594 168.876 176.23 165.724 173.077C163.845 171.222 162.436 169.905 160.872 167.777ZM141.51 122.952C130.701 124.002 122.786 133.609 123.823 144.419C124.86 155.229 134.458 163.155 145.269 162.13C156.098 161.103 164.04 151.486 163.001 140.659C161.962 129.832 152.336 121.901 141.51 122.952Z"/><path transform="scale(0.25 0.25)" d="M171.855 239.126C163.858 241.401 164.405 233.526 165.87 228.18C174.37 197.147 200.547 169.874 232.854 164.322C241.501 163.391 244.252 172.349 232.745 175.008C205.553 181.297 183.94 202.893 176.186 229.509C175.01 233.547 175.802 236.809 171.855 239.126Z"/><path transform="scale(0.25 0.25)" d="M225.837 229.986C221.084 230.31 205.497 213.211 204.574 210.972C203.158 207.54 205.423 204.85 208.549 203.741C213.598 203.535 229.464 221.429 230.033 223.338C231.011 226.618 228.917 229.134 225.837 229.986Z"/><path transform="scale(0.25 0.25)" d="M275.311 345.635C268.506 346.321 267.94 337.439 272.201 335.988C275.749 334.78 280.581 334.152 284.537 332.857C290.502 330.903 294.669 327.71 300.136 325.279C303.072 325.17 305.865 326.41 306.483 329.641C308.026 337.718 280.774 345.036 275.311 345.635Z"/><path transform="scale(0.25 0.25)" d="M250.788 385.999C250.784 379.255 250.158 340.751 251.403 337.434C252.038 335.742 253.44 335.216 254.97 334.543C264.127 333.768 261.295 347.618 261.295 354.112L261.281 385.999C293.784 392.223 295.052 441.028 257.56 445.253C224.094 445.803 213.769 399.552 245.672 387.071C247.53 386.344 248.807 386.156 250.788 385.999ZM254.658 396.038C244.099 396.858 236.18 406.044 236.926 416.608C237.672 427.173 246.803 435.156 257.372 434.484C268.047 433.805 276.126 424.564 275.373 413.894C274.62 403.225 265.322 395.21 254.658 396.038Z"/></svg>